<svg xmlns="http://www.w3.org/2000/svg" viewBox="8384.268 1213.494 9.732 13.506"><defs><style>.a,.d{fill:none;}.a{stroke:#ae81ff;}.b{fill:#fff;stroke:#707070;}.c{stroke:none;}</style></defs><g transform="translate(48 -250)"><path class="a" d="M0,0V10.18" transform="translate(8341.5 1463.5)"/><line class="a" x1="5" y1="2.627" transform="translate(8336.5 1466.5)"/><path class="a" d="M4.707,0,0,2.567" transform="translate(8336.977 1463.933)"/><line class="a" y1="2" x2="4" transform="translate(8337.5 1464.5)"/><line class="a" y1="4" x2="1" transform="translate(8340.5 1464.5)"/><line class="a" y1="4" x2="2" transform="translate(8339.5 1464.5)"/><line class="a" y1="2" x2="2" transform="translate(8339.5 1465.5)"/><line class="a" y1="2" transform="translate(8338.5 1465.5)"/><line class="a" y1="2" transform="translate(8339 1465.5)"/><line class="a" y1="2" transform="translate(8340 1465.5)"/><line class="a" x2="2" transform="translate(8338.5 1466.5)"/><g class="b" transform="translate(8337 1475)"><rect class="c" width="9" height="2"/><rect class="d" x="0.5" y="0.5" width="8" height="1"/></g><g class="b" transform="translate(8338 1474)"><rect class="c" width="7" height="2"/><rect class="d" x="0.5" y="0.5" width="6" height="1"/></g><g class="b" transform="translate(8339 1473)"><rect class="c" width="5" height="2"/><rect class="d" x="0.5" y="0.5" width="4" height="1"/></g></g></svg>