<svg xmlns="http://www.w3.org/2000/svg" viewBox="8219 1330 309 309"><defs><style>.a,.c{fill:rgba(255,255,255,0);}.a{stroke:#fbf9fc;stroke-width:2px;}.b{fill:#fbf9fc;}.d{fill:#69bae5;}.d,.e{font-size:12px;font-family:ProximaNova-Bold, Proxima Nova;font-weight:700;}.e{fill:#a6c249;}.f,.k{fill:none;}.f{stroke:#ae81ff;}.g{fill:#707070;}.h{fill:#fff;stroke:#707070;}.i{fill:#ae81ff;}.j{stroke:none;}</style></defs><g class="a" transform="translate(8219 1330)"><rect class="j" width="309" height="309"/><rect class="k" x="1" y="1" width="307" height="307"/></g><rect class="b" width="18" height="18" transform="translate(8393 1333)"/><rect class="b" width="18" height="18" transform="translate(8431 1333)"/><rect class="b" width="18" height="18" transform="translate(8412 1333)"/><rect class="b" width="18" height="18" transform="translate(8450 1333)"/><rect class="b" width="18" height="18" transform="translate(8488 1333)"/><rect class="b" width="18" height="18" transform="translate(8469 1333)"/><rect class="b" width="18" height="18" transform="translate(8507 1333)"/><rect class="b" width="18" height="18" transform="translate(8393 1352)"/><rect class="b" width="18" height="18" transform="translate(8431 1352)"/><rect class="b" width="18" height="18" transform="translate(8412 1352)"/><rect class="b" width="18" height="18" transform="translate(8450 1352)"/><rect class="b" width="18" height="18" transform="translate(8488 1352)"/><rect class="b" width="18" height="18" transform="translate(8469 1352)"/><rect class="b" width="18" height="18" transform="translate(8507 1352)"/><rect class="b" width="18" height="18" transform="translate(8393 1371)"/><rect class="b" width="18" height="18" transform="translate(8431 1371)"/><rect class="b" width="18" height="18" transform="translate(8412 1371)"/><rect class="b" width="18" height="18" transform="translate(8450 1371)"/><rect class="b" width="18" height="18" transform="translate(8488 1371)"/><rect class="b" width="18" height="18" transform="translate(8469 1371)"/><rect class="b" width="18" height="18" transform="translate(8507 1371)"/><rect class="b" width="18" height="18" transform="translate(8222 1390)"/><rect class="b" width="18" height="18" transform="translate(8241 1390)"/><rect class="b" width="18" height="18" transform="translate(8393 1390)"/><rect class="b" width="18" height="18" transform="translate(8431 1390)"/><rect class="b" width="18" height="18" transform="translate(8412 1390)"/><rect class="b" width="18" height="18" transform="translate(8450 1390)"/><rect class="b" width="18" height="18" transform="translate(8488 1390)"/><rect class="b" width="18" height="18" transform="translate(8469 1390)"/><rect class="b" width="18" height="18" transform="translate(8507 1390)"/><rect class="b" width="18" height="18" transform="translate(8222 1409)"/><rect class="b" width="18" height="18" transform="translate(8260 1409)"/><rect class="b" width="18" height="18" transform="translate(8241 1409)"/><rect class="b" width="18" height="18" transform="translate(8393 1409)"/><rect class="b" width="18" height="18" transform="translate(8431 1409)"/><rect class="b" width="18" height="18" transform="translate(8412 1409)"/><rect class="b" width="18" height="18" transform="translate(8450 1409)"/><rect class="b" width="18" height="18" transform="translate(8488 1409)"/><rect class="b" width="18" height="18" transform="translate(8469 1409)"/><rect class="b" width="18" height="18" transform="translate(8507 1409)"/><rect class="b" width="18" height="18" transform="translate(8222 1428)"/><rect class="b" width="18" height="18" transform="translate(8260 1428)"/><rect class="b" width="18" height="18" transform="translate(8241 1428)"/><rect class="b" width="18" height="18" transform="translate(8431 1428)"/><rect class="b" width="18" height="18" transform="translate(8412 1428)"/><rect class="b" width="18" height="18" transform="translate(8450 1428)"/><rect class="b" width="18" height="18" transform="translate(8488 1428)"/><rect class="b" width="18" height="18" transform="translate(8469 1428)"/><rect class="b" width="18" height="18" transform="translate(8507 1428)"/><rect class="b" width="18" height="18" transform="translate(8222 1447)"/><rect class="b" width="18" height="18" transform="translate(8260 1447)"/><rect class="b" width="18" height="18" transform="translate(8241 1447)"/><rect class="b" width="18" height="18" transform="translate(8431 1447)"/><rect class="b" width="18" height="18" transform="translate(8412 1447)"/><rect class="b" width="18" height="18" transform="translate(8450 1447)"/><rect class="b" width="18" height="18" transform="translate(8488 1447)"/><rect class="b" width="18" height="18" transform="translate(8469 1447)"/><rect class="b" width="18" height="18" transform="translate(8507 1447)"/><rect class="b" width="18" height="18" transform="translate(8222 1466)"/><rect class="b" width="18" height="18" transform="translate(8260 1466)"/><rect class="b" width="18" height="18" transform="translate(8241 1466)"/><rect class="b" width="18" height="18" transform="translate(8431 1466)"/><rect class="b" width="18" height="18" transform="translate(8450 1466)"/><rect class="b" width="18" height="18" transform="translate(8488 1466)"/><rect class="b" width="18" height="18" transform="translate(8469 1466)"/><rect class="b" width="18" height="18" transform="translate(8507 1466)"/><rect class="b" width="18" height="18" transform="translate(8222 1485)"/><rect class="b" width="18" height="18" transform="translate(8260 1485)"/><rect class="b" width="18" height="18" transform="translate(8241 1485)"/><rect class="b" width="18" height="18" transform="translate(8431 1485)"/><rect class="b" width="18" height="18" transform="translate(8450 1485)"/><rect class="b" width="18" height="18" transform="translate(8488 1485)"/><rect class="b" width="18" height="18" transform="translate(8469 1485)"/><rect class="b" width="18" height="18" transform="translate(8507 1485)"/><rect class="b" width="18" height="18" transform="translate(8222 1504)"/><rect class="b" width="18" height="18" transform="translate(8260 1504)"/><rect class="b" width="18" height="18" transform="translate(8241 1504)"/><rect class="b" width="18" height="18" transform="translate(8279 1504)"/><rect class="b" width="18" height="18" transform="translate(8431 1504)"/><rect class="b" width="18" height="18" transform="translate(8450 1504)"/><rect class="b" width="18" height="18" transform="translate(8488 1504)"/><rect class="b" width="18" height="18" transform="translate(8469 1504)"/><rect class="b" width="18" height="18" transform="translate(8507 1504)"/><rect class="b" width="18" height="18" transform="translate(8222 1523)"/><rect class="b" width="18" height="18" transform="translate(8260 1523)"/><rect class="b" width="18" height="18" transform="translate(8241 1523)"/><rect class="b" width="18" height="18" transform="translate(8279 1523)"/><rect class="b" width="18" height="18" transform="translate(8298 1523)"/><rect class="b" width="18" height="18" transform="translate(8431 1523)"/><rect class="b" width="18" height="18" transform="translate(8450 1523)"/><rect class="b" width="18" height="18" transform="translate(8488 1523)"/><rect class="b" width="18" height="18" transform="translate(8469 1523)"/><rect class="b" width="18" height="18" transform="translate(8507 1523)"/><rect class="b" width="18" height="18" transform="translate(8222 1542)"/><rect class="b" width="18" height="18" transform="translate(8260 1542)"/><rect class="b" width="18" height="18" transform="translate(8241 1542)"/><rect class="b" width="18" height="18" transform="translate(8279 1542)"/><rect class="b" width="18" height="18" transform="translate(8298 1542)"/><rect class="b" width="18" height="18" transform="translate(8431 1542)"/><rect class="b" width="18" height="18" transform="translate(8412 1542)"/><rect class="b" width="18" height="18" transform="translate(8450 1542)"/><rect class="b" width="18" height="18" transform="translate(8488 1542)"/><rect class="b" width="18" height="18" transform="translate(8469 1542)"/><rect class="b" width="18" height="18" transform="translate(8507 1542)"/><rect class="b" width="18" height="18" transform="translate(8222 1561)"/><rect class="b" width="18" height="18" transform="translate(8260 1561)"/><rect class="b" width="18" height="18" transform="translate(8241 1561)"/><rect class="b" width="18" height="18" transform="translate(8279 1561)"/><rect class="b" width="18" height="18" transform="translate(8317 1561)"/><rect class="b" width="18" height="18" transform="translate(8298 1561)"/><rect class="b" width="18" height="18" transform="translate(8431 1561)"/><rect class="b" width="18" height="18" transform="translate(8412 1561)"/><rect class="b" width="18" height="18" transform="translate(8450 1561)"/><rect class="b" width="18" height="18" transform="translate(8488 1561)"/><rect class="b" width="18" height="18" transform="translate(8469 1561)"/><rect class="b" width="18" height="18" transform="translate(8507 1561)"/><rect class="b" width="18" height="18" transform="translate(8222 1580)"/><rect class="b" width="18" height="18" transform="translate(8260 1580)"/><rect class="b" width="18" height="18" transform="translate(8241 1580)"/><rect class="b" width="18" height="18" transform="translate(8279 1580)"/><rect class="b" width="18" height="18" transform="translate(8317 1580)"/><rect class="b" width="18" height="18" transform="translate(8298 1580)"/><rect class="b" width="18" height="18" transform="translate(8431 1580)"/><rect class="b" width="18" height="18" transform="translate(8412 1580)"/><rect class="b" width="18" height="18" transform="translate(8450 1580)"/><rect class="b" width="18" height="18" transform="translate(8488 1580)"/><rect class="b" width="18" height="18" transform="translate(8469 1580)"/><rect class="b" width="18" height="18" transform="translate(8507 1580)"/><rect class="b" width="18" height="18" transform="translate(8222 1599)"/><rect class="b" width="18" height="18" transform="translate(8260 1599)"/><rect class="b" width="18" height="18" transform="translate(8241 1599)"/><rect class="b" width="18" height="18" transform="translate(8279 1599)"/><rect class="b" width="18" height="18" transform="translate(8317 1599)"/><rect class="b" width="18" height="18" transform="translate(8298 1599)"/><rect class="b" width="18" height="18" transform="translate(8336 1599)"/><rect class="b" width="18" height="18" transform="translate(8374 1599)"/><rect class="b" width="18" height="18" transform="translate(8355 1599)"/><rect class="b" width="18" height="18" transform="translate(8393 1599)"/><rect class="b" width="18" height="18" transform="translate(8431 1599)"/><rect class="b" width="18" height="18" transform="translate(8412 1599)"/><rect class="b" width="18" height="18" transform="translate(8450 1599)"/><rect class="b" width="18" height="18" transform="translate(8488 1599)"/><rect class="b" width="18" height="18" transform="translate(8469 1599)"/><rect class="b" width="18" height="18" transform="translate(8507 1599)"/><rect class="b" width="18" height="18" transform="translate(8222 1618)"/><rect class="b" width="18" height="18" transform="translate(8260 1618)"/><rect class="b" width="18" height="18" transform="translate(8241 1618)"/><rect class="b" width="18" height="18" transform="translate(8279 1618)"/><rect class="b" width="18" height="18" transform="translate(8317 1618)"/><rect class="b" width="18" height="18" transform="translate(8298 1618)"/><rect class="b" width="18" height="18" transform="translate(8336 1618)"/><rect class="b" width="18" height="18" transform="translate(8374 1618)"/><rect class="b" width="18" height="18" transform="translate(8355 1618)"/><rect class="b" width="18" height="18" transform="translate(8393 1618)"/><rect class="b" width="18" height="18" transform="translate(8431 1618)"/><rect class="b" width="18" height="18" transform="translate(8412 1618)"/><rect class="b" width="18" height="18" transform="translate(8450 1618)"/><rect class="b" width="18" height="18" transform="translate(8488 1618)"/><rect class="b" width="18" height="18" transform="translate(8469 1618)"/><rect class="b" width="18" height="18" transform="translate(8507 1618)"/><rect class="b" width="18" height="18" transform="translate(8336 1580)"/><rect class="b" width="18" height="18" transform="translate(8374 1580)"/><rect class="b" width="18" height="18" transform="translate(8355 1580)"/><rect class="b" width="18" height="18" transform="translate(8393 1580)"/><rect class="c" width="18" height="18" transform="translate(8374 1333)"/><text class="d" transform="translate(8380 1346)"><tspan x="0" y="0">1</tspan></text><rect class="c" width="18" height="18" transform="translate(8355 1353)"/><text class="d" transform="translate(8361 1366)"><tspan x="0" y="0">1</tspan></text><rect class="c" width="18" height="18" transform="translate(8336 1353)"/><text class="d" transform="translate(8342 1366)"><tspan x="0" y="0">1</tspan></text><rect class="c" width="18" height="18" transform="translate(8298 1485)"/><text class="d" transform="translate(8304 1498)"><tspan x="0" y="0">1</tspan></text><rect class="c" width="18" height="18" transform="translate(8279 1409)"/><text class="d" transform="translate(8285 1422)"><tspan x="0" y="0">1</tspan></text><rect class="c" width="18" height="18" transform="translate(8279 1390)"/><text class="d" transform="translate(8285 1403)"><tspan x="0" y="0">1</tspan></text><rect class="c" width="18" height="18" transform="translate(8279 1371)"/><text class="d" transform="translate(8285 1384)"><tspan x="0" y="0">1</tspan></text><rect class="c" width="18" height="18" transform="translate(8222 1371)"/><text class="d" transform="translate(8228 1384)"><tspan x="0" y="0">1</tspan></text><rect class="c" width="18" height="18" transform="translate(8336 1391)"/><text class="e" transform="translate(8342 1404)"><tspan x="0" y="0">2</tspan></text><rect class="c" width="18" height="18" transform="translate(8336 1372)"/><text class="e" transform="translate(8342 1385)"><tspan x="0" y="0">2</tspan></text><rect class="c" width="18" height="18" transform="translate(8374 1409)"/><text class="e" transform="translate(8380 1422)"><tspan x="0" y="0">2</tspan></text><rect class="c" width="18" height="18" transform="translate(8336 1561)"/><text class="e" transform="translate(8342 1574)"><tspan x="0" y="0">2</tspan></text><rect class="c" width="18" height="18" transform="translate(8317 1523)"/><text class="e" transform="translate(8323 1536)"><tspan x="0" y="0">2</tspan></text><rect class="c" width="18" height="18" transform="translate(8241 1371)"/><text class="e" transform="translate(8247 1384)"><tspan x="0" y="0">2</tspan></text><rect class="c" width="18" height="18" transform="translate(8260 1371)"/><text class="e" transform="translate(8266 1384)"><tspan x="0" y="0">2</tspan></text><rect class="c" width="18" height="18" transform="translate(8374 1352)"/><text class="e" transform="translate(8380 1365)"><tspan x="0" y="0">2</tspan></text><rect class="c" width="18" height="18" transform="translate(8374 1371)"/><text class="e" transform="translate(8380 1384)"><tspan x="0" y="0">2</tspan></text><rect class="c" width="18" height="18" transform="translate(8374 1390)"/><text class="e" transform="translate(8380 1403)"><tspan x="0" y="0">2</tspan></text><rect class="c" width="18" height="18" transform="translate(8412 1485)"/><text class="d" transform="translate(8418 1498)"><tspan x="0" y="0">1</tspan></text><rect class="c" width="18" height="18" transform="translate(8412 1523)"/><text class="e" transform="translate(8418 1536)"><tspan x="0" y="0">2</tspan></text><rect class="c" width="18" height="18" transform="translate(8412 1504)"/><text class="e" transform="translate(8418 1517)"><tspan x="0" y="0">2</tspan></text><rect class="c" width="18" height="18" transform="translate(8279 1466)"/><text class="d" transform="translate(8285 1479)"><tspan x="0" y="0">1</tspan></text><rect class="c" width="18" height="18" transform="translate(8279 1447)"/><text class="d" transform="translate(8285 1460)"><tspan x="0" y="0">1</tspan></text><rect class="c" width="18" height="18" transform="translate(8279 1428)"/><text class="d" transform="translate(8285 1441)"><tspan x="0" y="0">1</tspan></text><rect class="c" width="18" height="18" transform="translate(8279 1485)"/><text class="d" transform="translate(8285 1498)"><tspan x="0" y="0">1</tspan></text><rect class="c" width="18" height="18" transform="translate(8355 1409)"/><text class="d" transform="translate(8361 1422)"><tspan x="0" y="0">1</tspan></text><rect class="c" width="18" height="18" transform="translate(8336 1409)"/><text class="d" transform="translate(8342 1422)"><tspan x="0" y="0">1</tspan></text><rect class="c" width="18" height="18" transform="translate(8412 1466)"/><text class="d" transform="translate(8418 1479)"><tspan x="0" y="0">1</tspan></text><rect class="c" width="18" height="18" transform="translate(8393 1466)"/><text class="d" transform="translate(8399 1479)"><tspan x="0" y="0">1</tspan></text><rect class="c" width="18" height="18" transform="translate(8393 1447)"/><text class="d" transform="translate(8399 1460)"><tspan x="0" y="0">1</tspan></text><rect class="c" width="18" height="18" transform="translate(8374 1447)"/><text class="d" transform="translate(8380 1460)"><tspan x="0" y="0">1</tspan></text><rect class="c" width="18" height="18" transform="translate(8393 1504)"/><text class="d" transform="translate(8399 1517)"><tspan x="0" y="0">1</tspan></text><rect class="c" width="18" height="18" transform="translate(8374 1504)"/><text class="d" transform="translate(8380 1517)"><tspan x="0" y="0">1</tspan></text><rect class="c" width="18" height="18" transform="translate(8374 1485)"/><text class="d" transform="translate(8380 1498)"><tspan x="0" y="0">1</tspan></text><rect class="c" width="18" height="18" transform="translate(8374 1466)"/><text class="d" transform="translate(8380 1479)"><tspan x="0" y="0">1</tspan></text><rect class="c" width="18" height="18" transform="translate(8374 1428)"/><text class="d" transform="translate(8380 1441)"><tspan x="0" y="0">1</tspan></text><rect class="c" width="18" height="18" transform="translate(8393 1561)"/><text class="d" transform="translate(8399 1574)"><tspan x="0" y="0">1</tspan></text><rect class="c" width="18" height="18" transform="translate(8393 1542)"/><text class="d" transform="translate(8399 1555)"><tspan x="0" y="0">1</tspan></text><rect class="c" width="18" height="18" transform="translate(8393 1523)"/><text class="d" transform="translate(8399 1536)"><tspan x="0" y="0">1</tspan></text><rect class="c" width="18" height="18" transform="translate(8374 1561)"/><text class="d" transform="translate(8380 1574)"><tspan x="0" y="0">1</tspan></text><rect class="c" width="18" height="18" transform="translate(8355 1561)"/><text class="d" transform="translate(8361 1574)"><tspan x="0" y="0">1</tspan></text><rect class="c" width="18" height="18" transform="translate(8336 1542)"/><text class="d" transform="translate(8342 1555)"><tspan x="0" y="0">1</tspan></text><rect class="c" width="18" height="18" transform="translate(8336 1523)"/><text class="d" transform="translate(8342 1536)"><tspan x="0" y="0">1</tspan></text><rect class="c" width="18" height="18" transform="translate(8317 1504)"/><text class="d" transform="translate(8323 1517)"><tspan x="0" y="0">1</tspan></text><rect class="c" width="18" height="18" transform="translate(8317 1485)"/><text class="d" transform="translate(8323 1498)"><tspan x="0" y="0">1</tspan></text><rect class="b" width="18" height="18" transform="translate(8393 1485)"/><g transform="translate(60.05 21.237)"><path class="f" d="M0,0V9.07" transform="translate(8342.445 1466.787)"/><rect class="g" width="9.109" height="1.263" transform="translate(8337.892 1477.524)"/><rect class="g" width="6.688" height="1.263" transform="translate(8339.102 1476.261)"/><g class="h" transform="translate(8340.313 1474.998)"><rect class="j" width="4.268" height="1.595"/><rect class="k" x="0.5" y="0.5" width="3.268" height="0.595"/></g><rect class="i" width="5.159" height="3.788" transform="translate(8337 1467.09)"/></g><g transform="translate(0 -57)"><rect class="b" width="18" height="18" transform="translate(8393 1485)"/><g transform="translate(60.05 21.237)"><path class="f" d="M0,0V9.07" transform="translate(8342.445 1466.787)"/><rect class="g" width="9.109" height="1.263" transform="translate(8337.892 1477.524)"/><rect class="g" width="6.688" height="1.263" transform="translate(8339.102 1476.261)"/><g class="h" transform="translate(8340.313 1474.998)"><rect class="j" width="4.268" height="1.595"/><rect class="k" x="0.5" y="0.5" width="3.268" height="0.595"/></g><rect class="i" width="5.159" height="3.788" transform="translate(8337 1467.09)"/></g></g><g transform="translate(-38 -95)"><rect class="b" width="18" height="18" transform="translate(8393 1485)"/><g transform="translate(60.05 21.237)"><path class="f" d="M0,0V9.07" transform="translate(8342.445 1466.787)"/><rect class="g" width="9.109" height="1.263" transform="translate(8337.892 1477.524)"/><rect class="g" width="6.688" height="1.263" transform="translate(8339.102 1476.261)"/><g class="h" transform="translate(8340.313 1474.998)"><rect class="j" width="4.268" height="1.595"/><rect class="k" x="0.5" y="0.5" width="3.268" height="0.595"/></g><rect class="i" width="5.159" height="3.788" transform="translate(8337 1467.09)"/></g></g><g transform="translate(-38 -114)"><rect class="b" width="18" height="18" transform="translate(8393 1485)"/><g transform="translate(60.05 21.237)"><path class="f" d="M0,0V9.07" transform="translate(8342.445 1466.787)"/><rect class="g" width="9.109" height="1.263" transform="translate(8337.892 1477.524)"/><rect class="g" width="6.688" height="1.263" transform="translate(8339.102 1476.261)"/><g class="h" transform="translate(8340.313 1474.998)"><rect class="j" width="4.268" height="1.595"/><rect class="k" x="0.5" y="0.5" width="3.268" height="0.595"/></g><rect class="i" width="5.159" height="3.788" transform="translate(8337 1467.09)"/></g></g><g transform="translate(-95 19)"><rect class="b" width="18" height="18" transform="translate(8393 1485)"/><g transform="translate(60.05 21.237)"><path class="f" d="M0,0V9.07" transform="translate(8342.445 1466.787)"/><rect class="g" width="9.109" height="1.263" transform="translate(8337.892 1477.524)"/><rect class="g" width="6.688" height="1.263" transform="translate(8339.102 1476.261)"/><g class="h" transform="translate(8340.313 1474.998)"><rect class="j" width="4.268" height="1.595"/><rect class="k" x="0.5" y="0.5" width="3.268" height="0.595"/></g><rect class="i" width="5.159" height="3.788" transform="translate(8337 1467.09)"/></g></g><g transform="translate(-76 57)"><rect class="b" width="18" height="18" transform="translate(8393 1485)"/><g transform="translate(60.05 21.237)"><path class="f" d="M0,0V9.07" transform="translate(8342.445 1466.787)"/><rect class="g" width="9.109" height="1.263" transform="translate(8337.892 1477.524)"/><rect class="g" width="6.688" height="1.263" transform="translate(8339.102 1476.261)"/><g class="h" transform="translate(8340.313 1474.998)"><rect class="j" width="4.268" height="1.595"/><rect class="k" x="0.5" y="0.5" width="3.268" height="0.595"/></g><rect class="i" width="5.159" height="3.788" transform="translate(8337 1467.09)"/></g></g><g transform="translate(-133 -95)"><rect class="b" width="18" height="18" transform="translate(8393 1485)"/><g transform="translate(60.05 21.237)"><path class="f" d="M0,0V9.07" transform="translate(8342.445 1466.787)"/><rect class="g" width="9.109" height="1.263" transform="translate(8337.892 1477.524)"/><rect class="g" width="6.688" height="1.263" transform="translate(8339.102 1476.261)"/><g class="h" transform="translate(8340.313 1474.998)"><rect class="j" width="4.268" height="1.595"/><rect class="k" x="0.5" y="0.5" width="3.268" height="0.595"/></g><rect class="i" width="5.159" height="3.788" transform="translate(8337 1467.09)"/></g></g><g transform="translate(19 57)"><rect class="b" width="18" height="18" transform="translate(8393 1485)"/><g transform="translate(60.05 21.237)"><path class="f" d="M0,0V9.07" transform="translate(8342.445 1466.787)"/><rect class="g" width="9.109" height="1.263" transform="translate(8337.892 1477.524)"/><rect class="g" width="6.688" height="1.263" transform="translate(8339.102 1476.261)"/><g class="h" transform="translate(8340.313 1474.998)"><rect class="j" width="4.268" height="1.595"/><rect class="k" x="0.5" y="0.5" width="3.268" height="0.595"/></g><rect class="i" width="5.159" height="3.788" transform="translate(8337 1467.09)"/></g></g></svg>